<?xml version="1.0" encoding="utf-8"?>
<!-- Generator: Adobe Illustrator 27.5.0, SVG Export Plug-In . SVG Version: 6.00 Build 0)  -->
<svg version="1.1" xmlns="http://www.w3.org/2000/svg" xmlns:xlink="http://www.w3.org/1999/xlink" x="0px" y="0px"
	 viewBox="0 0 3710 3710" style="enable-background:new 0 0 3710 3710;" xml:space="preserve">
<g id="Background">
	<g>
		<g>
			<rect style="fill:#FFFFFF;" width="3710" height="3710"/>
		</g>
	</g>
</g>
<g id="Illustration">
	<g>
		<linearGradient id="SVGID_1_" gradientUnits="userSpaceOnUse" x1="3423.8621" y1="3611.3267" x2="1367.7976" y2="1392.0823">
			<stop  offset="0" style="stop-color:#DAE3FE"/>
			<stop  offset="1" style="stop-color:#E9EFFD"/>
		</linearGradient>
		<path style="fill:url(#SVGID_1_);" d="M3142.948,2344.622c-283.79,657.774-1032.904,940.304-1619.847,892.132
			c-160.259-13.153-482.704-39.617-734.472-275.712c-483.503-453.407-409.039-1401.154,53.812-1959.135
			c59.606-71.856,472.187-553.287,1115.118-546.843c470.719,4.718,801.112,268.396,841.287,301.245
			c50.751,41.497,162.688,140.108,263.57,296.548C3299.453,1420.436,3320.289,1933.578,3142.948,2344.622z"/>
		<g>
			<g>
				<path style="fill:#BDD0FB;" d="M1198.654,2035.628c0,0-1.619-344.497-162.809-432.12
					c-161.189-87.623-464.317-136.64-489.7-630.649c-14.861-289.215-25.626-415.543-31.998-470.579
					c-2.485-21.469,16.145-39.386,37.489-35.992c150.98,24.012,642.146,126.559,753.914,456.624
					C1438.051,1314.208,1198.654,2035.628,1198.654,2035.628z"/>
				
					<linearGradient id="SVGID_00000155841901980081731560000018301634237181274515_" gradientUnits="userSpaceOnUse" x1="661.1755" y1="1265.0732" x2="1236.7487" y2="1265.0732">
					<stop  offset="0" style="stop-color:#DAE3FE"/>
					<stop  offset="1" style="stop-color:#E9EFFD"/>
				</linearGradient>
				<path style="fill:url(#SVGID_00000155841901980081731560000018301634237181274515_);" d="M671.694,600.517
					c169.034,142.323,367.061,397.086,476.072,654.386c14.263,42.51,55.008,132.616,76.19,294.168
					c18.646,134.71,15.358,277.712,0.11,372.745c-0.964,6.008-6.616,10.097-12.624,9.133c-10.331-1.656-9.279-12.747-9.176-12.401
					c15.889-162.076,1.658-362.839-50.459-542.866c-66.327-220.986-206.262-433.085-349.855-612.266l-14.754-17.626
					C676.067,611.163,653.468,610.791,663.217,600.909C665.519,598.574,669.224,598.448,671.694,600.517z"/>
			</g>
			<g>
				<path style="fill:#91B3FA;" d="M1472.329,2690.262c21.753,9.908-210.842-266.068-293.817-707.552
					c-39.1-208.039-46.992-469.865-168.912-567.377c-101.471-81.156-437.11-18.533-546.852,4.759
					c-13.713,2.91-17.857,20.455-6.871,29.162c54.168,42.922,170.322,144.494,202.817,249.27
					c42.832,138.102,177.704,222.877,296.872,243.464c119.169,20.587,185.743,41.965,248.864,229.806
					C1267.552,2359.635,1410.521,2662.109,1472.329,2690.262z"/>
				<path style="fill:#BDD0FB;" d="M619.576,1474.49c140.914,1.885,293.822,61.784,373.92,180.033l7.564,11.286
					c17.481,26.47,117.658,215.329,174.789,372.621c0.711,1.961-0.301,4.128-2.261,4.84c-3.331,1.209-5.12-2.443-4.79-2.125
					c-39.208-88.661-95.09-200.893-139.44-284.748c-47.606-91.526-80.862-153.48-185.134-210.761
					c-115.996-61.583-225.239-65.151-224.91-65.093c-1.669-0.123-2.924-1.575-2.801-3.244
					C616.631,1475.694,617.989,1474.473,619.576,1474.49z"/>
			</g>
			<g>
				<path style="fill:#BDD0FB;" d="M1377.126,2730.151c12.922,6.35-75.659-136.585-85.787-264.448
					c-10.128-127.863-45.241-345.588-159.388-473.176c-114.147-127.588-235.41-136.071-384.393-12.881
					c-124.152,102.657-201.932,154.896-248.117,165.511c-11.436,2.628-16.936,15.78-11.045,25.928
					c31.355,54.015,119.175,177.638,260.348,164.737c180.075-16.456,395.363-139.956,464.785-44.025
					c69.422,95.931,62.425,150.913,65.793,197.218C1282.69,2535.319,1291.611,2688.132,1377.126,2730.151z"/>
				
					<linearGradient id="SVGID_00000062177984897543070650000008948116794699494570_" gradientUnits="userSpaceOnUse" x1="715.3176" y1="2185.2957" x2="1270.0413" y2="2185.2957">
					<stop  offset="0" style="stop-color:#DAE3FE"/>
					<stop  offset="1" style="stop-color:#E9EFFD"/>
				</linearGradient>
				<path style="fill:url(#SVGID_00000062177984897543070650000008948116794699494570_);" d="M716.527,2137.634
					c64.152-54.853,169.607-109.963,263.344-102.918c122.069,13.022,205.018,79.059,252.102,179.537
					c18.504,42.706,26.266,65.563,37.986,118.224c0.936,4.205-6.438,5.679-7.789,1.586c-8.14-24.66-16.242-50.492-28.02-77.114
					c-69.044-171.949-206.528-191.458-211.952-194.863c-10.319,1.154-74.151-36.569-221.021,35.056
					c-27.422,13.521-54.054,28.821-78.989,45.57l-0.138,0.093c-1.805,1.212-4.419,0.973-5.841-0.535
					C714.894,2140.877,715.062,2138.884,716.527,2137.634z"/>
			</g>
		</g>
		<g>
			
				<linearGradient id="SVGID_00000181801044995416960420000002613785769608287409_" gradientUnits="userSpaceOnUse" x1="2752.5022" y1="-227.0719" x2="1381.062" y2="3705.9731">
				<stop  offset="0" style="stop-color:#4F52FF"/>
				<stop  offset="1" style="stop-color:#4042E2"/>
			</linearGradient>
			<path style="fill:url(#SVGID_00000181801044995416960420000002613785769608287409_);" d="M2832.285,3061.18H1287.647
				c-81.135,0-146.908-68.49-146.908-152.977V609.805c0-86.197,68.357-155.375,151.1-152.915l1544.638,45.918
				c79.47,2.362,142.716,70.128,142.716,152.915v2252.479C2979.194,2992.69,2913.42,3061.18,2832.285,3061.18z"/>
			<path style="fill:#BDD0FB;" d="M2786.342,3020.186H1324.692c-76.776,0-139.015-66.026-139.015-147.472V657.023
				c0-83.095,64.684-149.783,142.982-147.412l1461.651,44.266c75.2,2.277,135.048,67.604,135.048,147.412v2171.425
				C2925.358,2954.16,2863.118,3020.186,2786.342,3020.186z"/>
			<circle style="fill:#91B3FA;" cx="2054.124" cy="1164.037" r="489.615"/>
			<g>
				<g style="opacity:0.6;">
					<path style="fill:#FFFFFF;" d="M2778.047,1809.387l-8.785,28.805c-4.97,16.297-16.017,26.786-28.182,26.757l-1380.159-3.249
						c-17.432-0.041-31.331-21.297-30.63-46.844v0c0.659-24.006,14.028-43.078,30.407-43.38l1388.944-25.556
						C2772.079,1745.507,2787.215,1779.326,2778.047,1809.387z"/>
				</g>
				<g style="opacity:0.6;">
					<path style="fill:#FFFFFF;" d="M1592.025,2038.049L1592.025,2038.049c0.544-16.704,9.699-29.894,20.866-30.06l1179.621-17.56
						c16.09-0.24,26.374,25.535,18.623,46.672l-7.451,20.319c-3.713,10.126-10.821,16.416-18.529,16.398l-1172.17-2.759
						C1600.981,2071.031,1591.441,2056.005,1592.025,2038.049z"/>
				</g>
				<g style="opacity:0.6;">
					<path style="fill:#FFFFFF;" d="M1591.778,2228.359L1591.778,2228.359c0.545-16.704,9.73-29.894,20.932-30.06l1183.361-17.551
						c16.141-0.24,26.458,25.535,18.682,46.672l-7.475,20.319c-3.725,10.126-10.855,16.416-18.588,16.397l-1175.886-2.768
						C1600.762,2261.341,1591.191,2246.315,1591.778,2228.359z"/>
				</g>
				<g style="opacity:0.6;">
					<path style="fill:#FFFFFF;" d="M1595.801,2419.31L1595.801,2419.31c0.543-16.704,9.678-29.894,20.82-30.061l1176.972-17.566
						c16.054-0.24,26.315,25.535,18.581,46.672l-7.435,20.319c-3.705,10.126-10.796,16.416-18.487,16.398l-1169.537-2.753
						C1604.737,2452.292,1595.218,2437.266,1595.801,2419.31z"/>
				</g>
				<g style="opacity:0.6;">
					<path style="fill:#FFFFFF;" d="M1595.858,2609.188L1595.858,2609.188c0.542-16.704,9.657-29.894,20.775-30.061l1174.443-17.572
						c16.019-0.24,26.258,25.535,18.541,46.672l-7.419,20.319c-3.697,10.126-10.773,16.416-18.448,16.398l-1167.024-2.747
						C1604.774,2642.169,1595.276,2627.144,1595.858,2609.188z"/>
				</g>
				<g style="opacity:0.6;">
					<path style="fill:#FFFFFF;" d="M1592.05,2800.12L1592.05,2800.12c0.543-16.704,9.679-29.894,20.823-30.061l1177.145-17.566
						c16.056-0.24,26.319,25.535,18.584,46.672l-7.436,20.319c-3.706,10.126-10.798,16.416-18.49,16.398l-1169.709-2.753
						C1600.987,2833.101,1591.467,2818.076,1592.05,2800.12z"/>
				</g>
				
					<ellipse transform="matrix(0.1602 -0.9871 0.9871 0.1602 -789.1614 3129.5181)" style="opacity:0.6;fill:#FFFFFF;" cx="1444.573" cy="2028.533" rx="41.434" ry="41.434"/>
				
					<ellipse transform="matrix(0.1602 -0.9871 0.9871 0.1602 -984.3353 3295.5728)" style="opacity:0.6;fill:#FFFFFF;" cx="1444.573" cy="2226.26" rx="41.434" ry="41.434"/>
				
					<ellipse transform="matrix(0.1602 -0.9871 0.9871 0.1602 -1165.0144 3455.7839)" style="opacity:0.6;fill:#FFFFFF;" cx="1448.386" cy="2412.547" rx="41.434" ry="41.434"/>
				
					<ellipse transform="matrix(0.1602 -0.9871 0.9871 0.1602 -1357.0232 3619.1458)" style="opacity:0.6;fill:#FFFFFF;" cx="1448.386" cy="2607.068" rx="41.434" ry="41.434"/>
				<circle style="opacity:0.6;fill:#FFFFFF;" cx="1450.293" cy="2790.148" r="41.434"/>
			</g>
		</g>
		<g>
			<g>
				
					<linearGradient id="SVGID_00000010290710389453586170000017314480581928612528_" gradientUnits="userSpaceOnUse" x1="1554.9125" y1="1801.6289" x2="2902.3887" y2="454.1528">
					<stop  offset="0" style="stop-color:#4F52FF"/>
					<stop  offset="1" style="stop-color:#4042E2"/>
				</linearGradient>
				
					<circle style="fill:url(#SVGID_00000010290710389453586170000017314480581928612528_);" cx="2152.922" cy="1203.62" r="471.357"/>
				<g>
					<defs>
						<circle id="SVGID_00000009560341372630749410000012630102312031272342_" cx="2152.599" cy="1203.982" r="448.797"/>
					</defs>
					<clipPath id="SVGID_00000178193720585537297240000014742173173576527539_">
						<use xlink:href="#SVGID_00000009560341372630749410000012630102312031272342_"  style="overflow:visible;"/>
					</clipPath>
					<path style="clip-path:url(#SVGID_00000178193720585537297240000014742173173576527539_);fill:#FFFFFF;" d="M2715.678,1768.862
						l-1088.119,35.521c-6.165,0.201-11.374-4.678-11.575-10.844L1576.78,592.604c-0.201-6.165,4.678-11.374,10.844-11.575
						l1088.119-35.521c6.165-0.201,11.374,4.678,11.575,10.844l39.204,1200.936
						C2726.723,1763.452,2721.844,1768.661,2715.678,1768.862z"/>
					<g style="clip-path:url(#SVGID_00000178193720585537297240000014742173173576527539_);">
						
							<linearGradient id="SVGID_00000167360136660459963170000008917753197452699544_" gradientUnits="userSpaceOnUse" x1="1427.0786" y1="2050.0498" x2="2387.0347" y2="1491.3442" gradientTransform="matrix(0.9995 -0.0326 0.0326 0.9995 -11.662 -7.9362)">
							<stop  offset="0" style="stop-color:#FF928E"/>
							<stop  offset="1" style="stop-color:#FE7062"/>
						</linearGradient>
						<path style="fill:url(#SVGID_00000167360136660459963170000008917753197452699544_);" d="M1921.684,1259.16
							c0,0,271.879-52.072,489.51-1.581l-7.106,223.414c0,0-47.438,311.124-86.128,449.177c0,0-164.472,34.167-244.99-6.402
							c0,0-77.403-386.243-115.24-442.603C1957.729,1481.166,1916.84,1331.313,1921.684,1259.16z"/>
						
							<linearGradient id="SVGID_00000178886231283584108690000000826422764500802473_" gradientUnits="userSpaceOnUse" x1="2013.1726" y1="1472.6102" x2="2206.1892" y2="1040.8635">
							<stop  offset="0" style="stop-color:#FEBBBA"/>
							<stop  offset="1" style="stop-color:#FF928E"/>
						</linearGradient>
						<path style="fill:url(#SVGID_00000178886231283584108690000000826422764500802473_);" d="M2105.118,1056.45l-21.214,184.998
							c0,0,77.201,32.458,129.271-5.72l-15.708-129.558L2105.118,1056.45z"/>
						<g>
							
								<linearGradient id="SVGID_00000147183224947722428010000010674612501838273682_" gradientUnits="userSpaceOnUse" x1="15940.5879" y1="-2462.4458" x2="16167.2529" y2="-2517.6125" gradientTransform="matrix(0.8595 -0.5111 0.5111 0.8595 157.6643 1082.0952)">
								<stop  offset="0" style="stop-color:#FEBBBA"/>
								<stop  offset="1" style="stop-color:#FF928E"/>
							</linearGradient>
							<path style="fill:url(#SVGID_00000147183224947722428010000010674612501838273682_);" d="M2218.423,932.738
								c0.908,1.528,20.348,93.831,32.325,150.969c4.949,23.608-11.785,46.234-35.805,48.445l-21.995,2.024
								c-40.414,3.719-77.012-23.945-84.458-63.841l-19.333-103.58C2089.156,966.755,2196.375,895.661,2218.423,932.738z"/>
							
								<linearGradient id="SVGID_00000143582559503319523030000016656749946073547394_" gradientUnits="userSpaceOnUse" x1="1660.0038" y1="907.3353" x2="1893.4691" y2="907.3353" gradientTransform="matrix(0.8595 -0.5111 0.5111 0.8595 157.6643 1082.0952)">
								<stop  offset="0" style="stop-color:#09005D"/>
								<stop  offset="1" style="stop-color:#1A0F91"/>
							</linearGradient>
							<path style="fill:url(#SVGID_00000143582559503319523030000016656749946073547394_);" d="M2065.405,967.787
								c-8.792-10.232-16.714-26.98,0.696-45.433c17.625-18.683,38.439-14.849,51.747-9.211c5.889,2.495,13,1.073,16.972-3.944
								c1.765-2.228,4.441-3.793,8.497-3.471c7.648,0.606,14.288-4.648,14.944-12.292c1.124-13.106,7.577-28.705,30.515-33.918
								c42.07-9.565,64.573,32.115,64.791,61.92c0.218,29.803-45.984,37.581-72.473,33.497c-19.458-3-35.625,14.541-42.836,24.064
								c-2.618,3.456-3.492,7.902-2.372,12.09l7.631,28.55c-4.344,9.095-8.595,18.377-14.858,26.22
								c-4.51,5.648-9.552,8.849-14.961,10.31c-8.374-14.436-30.531-16.206-40.802-16.201c-3.93,0.003-7.652-1.608-10.329-4.484
								c-8.03-8.625-20.792-28.035,1.764-48.241C2069.937,982.222,2070.311,973.499,2065.405,967.787z"/>
							
								<linearGradient id="SVGID_00000098218898087979587680000009948459690001176469_" gradientUnits="userSpaceOnUse" x1="15932.5479" y1="-2495.2654" x2="16159.2129" y2="-2550.4321" gradientTransform="matrix(0.8595 -0.5111 0.5111 0.8595 157.6643 1082.0952)">
								<stop  offset="0" style="stop-color:#FEBBBA"/>
								<stop  offset="1" style="stop-color:#FF928E"/>
							</linearGradient>
							<path style="fill:url(#SVGID_00000098218898087979587680000009948459690001176469_);" d="M2122.337,1086.721
								c0,0-2.608-51.918-23.792-56.11c-21.184-4.193-43.371,11.748-24.374,42.262
								C2097.801,1110.829,2122.337,1086.721,2122.337,1086.721z"/>
						</g>
						
							<linearGradient id="SVGID_00000147217137519746022440000010622952538323343749_" gradientUnits="userSpaceOnUse" x1="1379.1301" y1="1967.6781" x2="2339.0752" y2="1408.979" gradientTransform="matrix(0.9995 -0.0326 0.0326 0.9995 -11.662 -7.9362)">
							<stop  offset="0" style="stop-color:#FF928E"/>
							<stop  offset="1" style="stop-color:#FE7062"/>
						</linearGradient>
						<path style="fill:url(#SVGID_00000147217137519746022440000010622952538323343749_);" d="M1921.684,1259.16
							c0,0-409.289,474.124,96.291,634.006l-1.174-35.958c0,0-192.151-152.115-55.359-372.563
							C1961.443,1484.645,1936.772,1280.266,1921.684,1259.16z"/>
						
							<linearGradient id="SVGID_00000152965602149296656350000001821738532945978016_" gradientUnits="userSpaceOnUse" x1="2085.1663" y1="1892.6832" x2="1854.9116" y2="2089.3586" gradientTransform="matrix(0.9995 -0.0326 0.0326 0.9995 -11.662 -7.9362)">
							<stop  offset="0" style="stop-color:#FEBBBA"/>
							<stop  offset="1" style="stop-color:#FF928E"/>
						</linearGradient>
						<path style="fill:url(#SVGID_00000152965602149296656350000001821738532945978016_);" d="M2020.514,1860.686
							c0,0,63.317-45.264,92.554-31.819c29.237,13.444,29.941,35.019,29.941,35.019s-13.445,29.237-35.255,22.749
							c-21.81-6.487-71.683,9.54-93.493,3.052C2014.262,1889.688,2006.13,1861.156,2020.514,1860.686z"/>
						
							<linearGradient id="SVGID_00000069396532142958880390000004261467949370717608_" gradientUnits="userSpaceOnUse" x1="1491.9812" y1="2161.5391" x2="2451.9309" y2="1602.8372" gradientTransform="matrix(0.9995 -0.0326 0.0326 0.9995 -11.662 -7.9362)">
							<stop  offset="0" style="stop-color:#FF928E"/>
							<stop  offset="1" style="stop-color:#FE7062"/>
						</linearGradient>
						<path style="fill:url(#SVGID_00000069396532142958880390000004261467949370717608_);" d="M2411.194,1257.58
							c0,0,456.849,431.451-37.227,623.965l-1.174-35.958c0,0,181.821-164.323,30.943-375.38
							C2403.736,1470.207,2383.601,1294.477,2411.194,1257.58z"/>
						
							<linearGradient id="SVGID_00000183963262256787415640000012524018988500995206_" gradientUnits="userSpaceOnUse" x1="2223.7065" y1="1903.2772" x2="2353.2212" y2="2032.7919" gradientTransform="matrix(0.9995 -0.0326 0.0326 0.9995 -11.662 -7.9362)">
							<stop  offset="0" style="stop-color:#FEBBBA"/>
							<stop  offset="1" style="stop-color:#FF928E"/>
						</linearGradient>
						<path style="fill:url(#SVGID_00000183963262256787415640000012524018988500995206_);" d="M2369.315,1849.3
							c0,0-66.134-41.038-94.432-25.715c-28.297,15.322-27.593,36.897-27.593,36.897s15.322,28.298,36.663,20.401
							c21.341-7.896,72.152,4.845,93.493-3.052C2377.445,1877.832,2383.698,1848.83,2369.315,1849.3z"/>
					</g>
				</g>
			</g>
			<g>
				
					<linearGradient id="SVGID_00000030460244399191633510000002929666338112160399_" gradientUnits="userSpaceOnUse" x1="1151.8136" y1="1775.5314" x2="997.4766" y2="2248.6067" gradientTransform="matrix(0.9218 -0.3877 0.3877 0.9218 839.3084 207.6392)">
					<stop  offset="0" style="stop-color:#FEBBBA"/>
					<stop  offset="1" style="stop-color:#FF928E"/>
				</linearGradient>
				<path style="fill:url(#SVGID_00000030460244399191633510000002929666338112160399_);" d="M2469.982,1546.527
					c0,0-62.976,307.391,215.414,442.97l95.628-40.063c0,0-255.073-115.4-281.5-384.304l42.402-91.382l8.792-66.183
					L2469.982,1546.527z"/>
				<g>
					
						<linearGradient id="SVGID_00000093877374786751111120000003888383998984175745_" gradientUnits="userSpaceOnUse" x1="1323.9546" y1="2917.2512" x2="1594.8417" y2="2917.2512" gradientTransform="matrix(1 0 0 1 1477.8951 0)">
						<stop  offset="0" style="stop-color:#FEBBBA"/>
						<stop  offset="1" style="stop-color:#FF928E"/>
					</linearGradient>
					<path style="fill:url(#SVGID_00000093877374786751111120000003888383998984175745_);" d="M2801.85,2667.182
						c0,0,144.909,315.833,220.937,446.649c0,0,15.1,82.312,0,108.196l-12.869,5.72l60.059-1.788c0,0,5.335-110.719,1.169-116.903
						c-4.167-6.185-12.501-5.779-12.501-5.779s-25.752-204.029-100.334-247.573l-72.279-248.95L2801.85,2667.182z"/>
					
						<linearGradient id="SVGID_00000132063691942091696960000012560376322058912442_" gradientUnits="userSpaceOnUse" x1="4673.0396" y1="1012.1975" x2="5702.5103" y2="290.8912" gradientTransform="matrix(1 0 0 1 1477.8951 0)">
						<stop  offset="0" style="stop-color:#09005D"/>
						<stop  offset="1" style="stop-color:#1A0F91"/>
					</linearGradient>
					<path style="fill:url(#SVGID_00000132063691942091696960000012560376322058912442_);" d="M2984.268,3243.253
						c-0.089,1.449,46.898,0.786,72.423,0.321c9.425-0.173,17.459-6.796,19.468-16.006l19.275-101.268
						c1.832-9.624-4.279-18.971-13.829-21.154l-10.759-2.459c0,0-15.349,21.055-10.517,40.878
						c4.832,19.823,9.131,71.172-3.078,77.155c-12.209,5.983-47.332,7.029-47.332,7.029S2985.071,3230.212,2984.268,3243.253z"/>
					
						<linearGradient id="SVGID_00000075857482584125009780000007508057288570339203_" gradientUnits="userSpaceOnUse" x1="4600.1309" y1="908.1414" x2="5629.6016" y2="186.8349" gradientTransform="matrix(1 0 0 1 1477.8951 0)">
						<stop  offset="0" style="stop-color:#09005D"/>
						<stop  offset="1" style="stop-color:#1A0F91"/>
					</linearGradient>
					<path style="fill:url(#SVGID_00000075857482584125009780000007508057288570339203_);" d="M2664.501,3245.091
						c-4.752,2.708-2.792,9.964,2.677,9.908c42.714-0.429,138.428-1.781,146.933-5.318c10.981-4.566-4.002-44.023-19.769-57.378
						l-87.062,28.415L2664.501,3245.091z"/>
					
						<linearGradient id="SVGID_00000029047491156628957630000014719765113516093571_" gradientUnits="userSpaceOnUse" x1="1159.5813" y1="2937.3936" x2="1316.447" y2="2937.3936" gradientTransform="matrix(1 0 0 1 1477.8951 0)">
						<stop  offset="0" style="stop-color:#FEBBBA"/>
						<stop  offset="1" style="stop-color:#FF928E"/>
					</linearGradient>
					<path style="fill:url(#SVGID_00000029047491156628957630000014719765113516093571_);" d="M2637.476,2647.039
						c0,0,93.643,453.015,120.134,541.383l-62.667,39.325c0,0,31.404-5.341,54.691-7.029c23.287-1.688,44.708-28.415,44.708-28.415
						l-7.508-11.974c0,0-23.483-450.547-17.766-501.708L2637.476,2647.039z"/>
					
						<linearGradient id="SVGID_00000148644170441276501150000009045882316005795988_" gradientUnits="userSpaceOnUse" x1="821.6649" y1="1760.4882" x2="1128.7574" y2="1760.4882" gradientTransform="matrix(1 0 0 1 1477.8951 0)">
						<stop  offset="0" style="stop-color:#FEBBBA"/>
						<stop  offset="1" style="stop-color:#FF928E"/>
					</linearGradient>
					<path style="fill:url(#SVGID_00000148644170441276501150000009045882316005795988_);" d="M2405.021,1590.381
						c0,0-12.917,235.654,201.632,356.074l-51.654,117.807c0,0-194.245-117.49-187.062-437.929
						c0.206-9.196-3.111-18.126-9.116-25.094l-41.283-47.893c-15.729-18.247-21.607-43.001-15.76-66.372l5.434-21.722
						c1.819-7.272,10.102-10.771,16.584-7.006l4.317,2.508c13.744,7.983,24.63,20.084,31.12,34.592l20.271,45.313
						c7.572,16.926,25.031,27.203,43.505,25.608l12.534-1.082L2405.021,1590.381z"/>
					
						<linearGradient id="SVGID_00000034085967013362409330000014856480721119815337_" gradientUnits="userSpaceOnUse" x1="2073.7905" y1="2287.3643" x2="2581.729" y2="2134.9829">
						<stop  offset="0" style="stop-color:#FF928E"/>
						<stop  offset="1" style="stop-color:#FE7062"/>
					</linearGradient>
					<path style="fill:url(#SVGID_00000034085967013362409330000014856480721119815337_);" d="M2599.185,1928.796
						c35.894,9.954,157.496,41.943,233.41,40.635l-46.61,263.026l3.71,42.901l-151.968-0.681c0,0-42.78-99.353-76.532-148.885
						c-9.749-14.306-2.493-31.369,3.031-47.775l-7.591-5.054c-7.725-5.143-11.074-14.804-8.192-23.625l37.007-113.225
						C2587.372,1930.407,2593.382,1927.187,2599.185,1928.796z"/>
					
						<linearGradient id="SVGID_00000085936666445075650580000009395113555270177697_" gradientUnits="userSpaceOnUse" x1="3303.0818" y1="1944.7456" x2="2591.9343" y2="2615.2556">
						<stop  offset="0" style="stop-color:#4F52FF"/>
						<stop  offset="1" style="stop-color:#4042E2"/>
					</linearGradient>
					<path style="fill:url(#SVGID_00000085936666445075650580000009395113555270177697_);" d="M2625.55,2252.228l2.99,25.99
						c0,0-42.946,128.613,21.473,429.004c0,0,139.518,39.525,254.185-55.053c0,0-32.346-283.523-41.181-296.73
						c-44.006-65.781-73.322-80.081-73.322-80.081l-1.323-28.394C2788.372,2246.964,2665.728,2269.138,2625.55,2252.228z"/>
					
						<linearGradient id="SVGID_00000090264494721678360710000000358210733298653348_" gradientUnits="userSpaceOnUse" x1="1207.1356" y1="1911.2563" x2="1303.1292" y2="1911.2563" gradientTransform="matrix(1 0 0 1 1477.8951 0)">
						<stop  offset="0" style="stop-color:#FEBBBA"/>
						<stop  offset="1" style="stop-color:#FF928E"/>
					</linearGradient>
					<path style="fill:url(#SVGID_00000090264494721678360710000000358210733298653348_);" d="M2685.037,1949.995
						c-0.533-0.704,31.727-97.396,31.727-97.396l46.208,4.192l18.052,109.692C2781.024,1966.483,2708.605,1981.1,2685.037,1949.995z
						"/>
					
						<linearGradient id="SVGID_00000114044609695901895160000008626594677419858096_" gradientUnits="userSpaceOnUse" x1="1359.6989" y1="1787.2054" x2="2058.4036" y2="1834.7174" gradientTransform="matrix(1 0 0 1 1477.8951 0)">
						<stop  offset="0" style="stop-color:#FEBBBA"/>
						<stop  offset="1" style="stop-color:#FF928E"/>
					</linearGradient>
					<path style="fill:url(#SVGID_00000114044609695901895160000008626594677419858096_);" d="M2751.91,1700.114
						c-3.081,1.918-98.742,41.452-78.189,140.766c1.215,5.869,5.131,10.843,10.604,13.284c14.038,6.262,44.259,16.983,80.406,13.31
						c50.113-5.093,82.95-92.541,81.554-117.989C2844.888,1724.037,2782.448,1681.098,2751.91,1700.114z"/>
					
						<linearGradient id="SVGID_00000116929736558641339780000000241727932855230374_" gradientUnits="userSpaceOnUse" x1="1474.5414" y1="1745.0886" x2="1228.5978" y2="2236.9749" gradientTransform="matrix(1 0 0 1 1477.8951 0)">
						<stop  offset="0" style="stop-color:#09005D"/>
						<stop  offset="1" style="stop-color:#1A0F91"/>
					</linearGradient>
					<path style="fill:url(#SVGID_00000116929736558641339780000000241727932855230374_);" d="M2781.024,1661.503
						c-2.515,0.33-55.282,18.708-29.114,56.944c26.167,38.235,35.983,60.744,23.607,77.534
						c-11.275,15.297-36.254,6.578-34.075,38.403c0.436,6.37-2.319,12.555-7.607,16.134
						c-23.538,15.934-80.965,64.975-24.069,134.915c4.625,5.685,5.577,13.532,2.009,19.933
						c-16.664,29.89-51.668,117.452,75.059,166.024c125.226,47.996,170.44-33.862,183.072-66.581
						c2.732-7.077,9.7-11.409,17.277-11.051c13.76,0.65,33.26-1.639,32.363-20.028c-0.544-11.169-7.513-21.178-15.749-29.203
						c-8.152-7.943-6.541-21.85,3.355-27.472c7.475-4.247,14.09-10.878,16.882-21.223c7.588-28.122-7.562-112.207-88.16-126.457
						c-6.723-1.189-13.763-7.492-14.742-14.249c-0.015-0.1-0.03-0.201-0.047-0.301c-1.08-6.534,1.131-13.216,6.471-17.134
						c12.869-9.441,29.374-28.448,15.969-58.928c-11.889-27.034-34.692-36.153-51.629-39.059
						c-9.945-1.706-16.483-11.111-14.387-20.981C2883.222,1691.83,2878.242,1648.757,2781.024,1661.503z"/>
				</g>
			</g>
		</g>
	</g>
</g>
</svg>
